<?xml version="1.0" encoding="UTF-8"?>
<svg id="Layer_2" xmlns="http://www.w3.org/2000/svg" viewBox="0 0 613.69 96.78">
  <defs>
    <style>
      .cls-1 {
        fill: #f04d3c;
      }

      .cls-1, .cls-2 {
        fill-rule: evenodd;
      }

      .cls-3 {
        fill: #006838;
        font-family: FrederickatheGreat-Regular, 'Fredericka the Great';
        font-size: 79px;
      }

      .cls-4 {
        fill: #947151;
      }

      .cls-2 {
        fill: #84bf4d;
      }
    </style>
  </defs>
  <g id="Layer_1-2" data-name="Layer_1">
    <g>
      <g>
        <path class="cls-2" d="M37.76,3.85c1.5,3.28-.7,14.43-.7,14.43,0,0-9.99-5.88-11.48-9.15-1.5-3.27.02-7.11,3.38-8.57,3.37-1.46,7.31.02,8.81,3.29Z"/>
        <path class="cls-4" d="M40.25,18.99h-3.49c0-5.65,3.18-15.4,15.96-15.4v3.39c-11.62,0-12.48,10.87-12.48,12Z"/>
        <path class="cls-1" d="M38.51,18.38C28.87,8.49,0,8.06,0,36.28c0,17.83,20.96,43.4,30.1,43.4,4.15,0,5.64-2.59,8.05-2.59s3.24,2.59,8.55,2.59c9.15,0,30.32-25.48,30.32-43.39,0-28.21-28.87-27.78-38.51-17.9Z"/>
      </g>
      <text class="cls-3" transform="translate(79.44 77.18)"><tspan x="0" y="0">Rent-a-Mentor</tspan></text>
    </g>
  </g>
</svg>